<svg xmlns="http://www.w3.org/2000/svg" width="24" height="24" fill="none"><path fill="#082242" d="M15.998 19.02a2.814 2.814 0 0 1 2.81-2.81 2.813 2.813 0 0 1 2.81 2.81 2.814 2.814 0 0 1-2.81 2.81 2.813 2.813 0 0 1-2.81-2.81Zm1.527 0a1.284 1.284 0 0 0 2.189.906 1.284 1.284 0 0 0 0-1.813 1.283 1.283 0 0 0-2.19.907Zm-10.082 0a2.813 2.813 0 0 1 2.81-2.81 2.813 2.813 0 0 1 2.81 2.81 2.813 2.813 0 0 1-2.81 2.81 2.813 2.813 0 0 1-2.81-2.81Zm1.527 0a1.284 1.284 0 0 0 2.19.906 1.284 1.284 0 1 0-2.19-.907Zm-1.053-3.18a.765.765 0 0 1-.726-.527L3.351 3.527H.766A.764.764 0 1 1 .764 2h3.14a.763.763 0 0 1 .727.527l.797 2.447h17.808a.763.763 0 0 1 .755.88.763.763 0 0 1-.018.315l-2.464 9.107a.763.763 0 0 1-.737.564H7.917Zm.554-1.528h11.717L22.303 6.5H5.926l2.545 7.812Z"/></svg>