<svg xmlns="http://www.w3.org/2000/svg" aria-hidden="true" style="position:absolute;width:0;height:0;overflow:hidden"><defs><symbol id="icon-arrow" viewBox="0 0 59 48"><path d="M28.231 26.068c.334.335.796.542 1.307.542s.973-.207 1.307-.542l11.749-11.745a1.847 1.847 0 0 0-2.614-2.61L29.538 22.155 19.096 11.713a1.847 1.847 0 0 0-2.614 2.61l11.749 11.745zm-.539-3.914v2.61h3.692v-2.61h-3.692z"/></symbol><symbol id="icon-basket" viewBox="0 0 48 48"><path d="M31.996 38.04a5.629 5.629 0 0 1 5.62-5.62 5.626 5.626 0 0 1 5.62 5.62 5.629 5.629 0 0 1-5.62 5.62 5.626 5.626 0 0 1-5.62-5.62zm3.054 0a2.568 2.568 0 0 0 4.378 1.812c.463-.464.749-1.105.749-1.813s-.286-1.349-.749-1.813a2.565 2.565 0 0 0-4.38 1.814zm-20.164 0a5.626 5.626 0 0 1 5.62-5.62 5.626 5.626 0 0 1 5.62 5.62 5.626 5.626 0 0 1-5.62 5.62 5.626 5.626 0 0 1-5.62-5.62zm3.054 0a2.567 2.567 0 0 0 4.38 1.812 2.568 2.568 0 1 0-4.38-1.82v.006zm-2.106-6.36a1.532 1.532 0 0 1-1.449-1.043l-.003-.011-7.68-23.572h-5.17l-.057.001A1.528 1.528 0 1 1 1.531 4h-.003 6.283c.674 0 1.246.437 1.448 1.043l.003.011 1.594 4.894h35.618a1.526 1.526 0 0 1 1.507 1.769l.001-.009a1.55 1.55 0 0 1-.039.641l.003-.011-4.928 18.214a1.529 1.529 0 0 1-1.473 1.128H15.834zm1.108-3.056h23.434L44.606 13H11.852l5.09 15.624z"/></symbol><symbol id="icon-phone_icon" viewBox="0 0 48 48"><path d="M13.25 21.59c2.947 5.699 7.479 10.227 13.012 13.091l.168.079 4.4-4.41c.55-.55 1.34-.71 2.03-.49C35.1 30.6 37.51 31 40 31c1.11 0 2 .89 2 2v7c0 1.11-.89 2-2 2C21.22 42 6 26.78 6 8a2 2 0 0 1 2-2h7c1.11 0 2 .89 2 2 0 2.49.4 4.9 1.14 7.14.22.69.06 1.48-.49 2.03l-4.4 4.42z"/></symbol><symbol id="icon-search_icon" viewBox="0 0 48 48"><path stroke-linecap="round" stroke-linejoin="round" stroke-width="4" d="M21 36c8.284 0 15-6.716 15-15S29.284 6 21 6C12.716 6 6 12.716 6 21s6.716 15 15 15zm21 6L31.6 31.6"/></symbol></defs></svg>