<svg width="94" height="94" viewBox="0 0 94 94" fill="none" xmlns="http://www.w3.org/2000/svg">
<circle cx="47" cy="47" r="46" stroke="url(#paint0_linear_206_9790)" stroke-width="2" stroke-dasharray="2 2"/>
<path d="M31.1368 47.1467L24.9813 53.1922C23.6355 54.514 22.6722 56.23 22.5965 58.1148C22.2369 67.0711 28.3392 70.498 33.4808 71.4123C35.7252 71.8115 37.908 70.7787 39.5199 69.1667L44.0616 64.6251M31.1368 47.1467L25.9142 42.169C23.2144 39.5959 21.2638 36.1168 21.866 32.4362C22.7457 27.0602 25.9976 21.5841 34.4524 22.2753C36.9347 22.4783 39.1704 23.7578 41.0594 25.3809L47.5872 30.9901M31.1368 47.1467L47.5872 30.9901M47.5872 30.9901L49.3497 29.259M62.2747 46.4119L68.4239 40.2627C69.7724 38.9142 70.716 37.1683 70.7987 35.2631C71.2541 24.7715 64.0052 22.3961 58.47 22.6038C56.722 22.6694 55.1469 23.5654 53.8989 24.7911L49.3497 29.259M62.2747 46.4119L69.1195 53.7468C70.0355 54.7284 70.884 55.804 71.2742 57.0887C73.1595 63.2955 69.7339 72.275 58.5082 70.5079C56.7034 70.2238 55.0487 69.374 53.5562 68.3203L45.8247 62.862M62.2747 46.4119L45.8247 62.862M45.8247 62.862L44.0616 64.6251M49.3497 29.259L58.1622 38.1876M60.5122 39.9501L62.2747 41.7126M31.7247 51.7001L33.4872 53.4626M35.2497 55.2251L44.0616 64.6251M45.6292 40.3902L39.8185 46.927C38.7466 48.1328 37.8685 49.5785 37.8398 51.1915C37.7782 54.6443 39.9155 56.2004 42.2257 56.7748C44.4979 57.3396 46.7067 56.0566 48.3169 54.3569L54.2977 48.0438C55.6677 46.5977 56.7429 44.7586 56.5497 42.776C56.1666 38.8465 53.238 37.7594 50.4971 37.7781C48.5733 37.7912 46.9074 38.9524 45.6292 40.3902Z" stroke="url(#paint1_linear_206_9790)" stroke-width="1.5" stroke-linecap="round" stroke-linejoin="round"/>
<path d="M43.4742 51.1124C43.9442 50.6424 48.3701 45.8249 50.5242 43.4749" stroke="url(#paint2_linear_206_9790)" stroke-width="1.5" stroke-linecap="round" stroke-linejoin="round"/>
<defs>
<linearGradient id="paint0_linear_206_9790" x1="-8.75443e-08" y1="47" x2="103.335" y2="47" gradientUnits="userSpaceOnUse">
<stop stop-color="#1E2A5D"/>
<stop offset="0.372917" stop-color="#2A3976"/>
<stop offset="0.699396" stop-color="#3C509C"/>
<stop offset="1" stop-color="#495FBA"/>
</linearGradient>
<linearGradient id="paint1_linear_206_9790" x1="21.5995" y1="46.95" x2="76.7446" y2="46.95" gradientUnits="userSpaceOnUse">
<stop stop-color="#1E2A5D"/>
<stop offset="0.372917" stop-color="#2A3976"/>
<stop offset="0.699396" stop-color="#3C509C"/>
<stop offset="1" stop-color="#495FBA"/>
</linearGradient>
<linearGradient id="paint2_linear_206_9790" x1="43.4742" y1="47.2936" x2="51.2243" y2="47.2936" gradientUnits="userSpaceOnUse">
<stop stop-color="#1E2A5D"/>
<stop offset="0.372917" stop-color="#2A3976"/>
<stop offset="0.699396" stop-color="#3C509C"/>
<stop offset="1" stop-color="#495FBA"/>
</linearGradient>
</defs>
</svg>
