<svg xmlns="http://www.w3.org/2000/svg" width="94" height="94" fill="none"><circle cx="47" cy="47" r="46" stroke="#51AAA0" stroke-dasharray="2 2" stroke-width="2"/><path stroke="#51AAA0" stroke-linecap="round" stroke-linejoin="round" stroke-width="1.5" d="m31.538 46.93-8.225 8.079c-2.35 13.63 8.42 16.646 14.1 16.45l7.05-7.05M31.538 46.931l-9.4-8.96c-.783-6.658 1.41-19.034 16.45-15.274l9.4 8.077m-16.45 16.157 16.45-16.157m0 0 1.763-1.731m12.925 17.153 8.224-8.224c2.35-15.04-8.812-16.45-14.687-15.276l-6.462 6.347m12.925 17.153 8.224 8.813c3.526 6.462 0 18.8-14.687 14.688l-9.987-7.051m16.45-16.45-16.45 16.45m0 0-1.763 1.763m5.288-35.366 8.813 8.928m2.35 1.763 1.762 1.762m-30.55 9.988 1.763 1.762m1.762 1.763 8.812 9.4m-5.875-15.863 9.4-10.575c3.526-.979 10.223-.822 8.813 7.638L46.226 56.772c-3.33.391-9.518-.706-7.638-8.225Z"/><path stroke="#51AAA0" stroke-linecap="round" stroke-linejoin="round" stroke-width="1.5" d="M43.475 51.113c.47-.47 4.895-5.288 7.05-7.638"/></svg>