<svg width="94" height="94" viewBox="0 0 94 94" fill="none" xmlns="http://www.w3.org/2000/svg">
<circle cx="47" cy="47" r="46" stroke="url(#paint0_linear_206_9797)" stroke-width="2" stroke-linejoin="round" stroke-dasharray="2 2"/>
<path d="M54.3437 70.2318H57.2518M57.2518 70.2318H60.1599V78.7251H32.1362V70.2318H33.4581M57.2518 70.2318V65.9851M57.2518 65.9851H34.7799M57.2518 65.9851C58.6162 65.9851 60.834 57.2683 62.0011 51.8849C62.1878 51.0235 62.2749 50.1468 62.2749 49.2653V37.9886C62.2749 35.8313 61.769 33.0643 59.6271 32.8074C58.1935 32.6354 57.0193 33.7652 56.4587 34.6657M34.7799 65.9851V70.2318M34.7799 65.9851C33.3699 62.2693 30.5499 53.9883 30.5499 50.591C30.5499 47.5583 30.5499 36.9685 30.5499 30.4507C30.5499 29.0281 30.7375 27.5139 31.7527 26.5175C32.9185 25.3731 34.6085 25.0609 36.3662 28.296V41.5668V22.5631C36.3662 20.7566 36.7003 18.7354 38.2721 17.8448C39.038 17.4109 39.9309 17.2725 40.8573 17.7949C42.4309 18.6823 42.7112 20.7566 42.7112 22.5631V39.9742V19.6608C42.7112 18.0115 43.0121 16.2787 44.2064 15.1412C45.5364 13.8746 47.3241 13.3569 48.9659 15.9857C49.4242 16.7196 49.5849 17.5963 49.5849 18.4615V19.8026M34.7799 70.2318H51.1712H33.4581M34.7799 70.2318H33.4581M49.5849 36.9259V19.8026M49.5849 19.8026C50.3631 18.5006 52.1147 16.8154 54.1655 17.7079C56.0411 18.5241 56.4587 20.8993 56.4587 22.9448V34.6657M56.4587 44.2207V34.6657M40.5374 44.6501C37.3649 46.7734 34.5244 53.0243 39.0099 59.9251C40.5374 62.2751 48.459 65.4458 54.3437 59.9251C55.6584 58.3119 57.409 54.5594 55.8023 50.6624C55.0845 48.9215 53.643 47.4746 51.8104 47.0412C50.4803 46.7266 48.7876 46.7177 46.8961 47.4752C45.8325 47.9012 44.8902 48.6261 44.3148 49.6168C43.731 50.6221 43.3136 51.9121 43.5573 53.2562C43.97 55.532 46.5614 56.6686 48.858 56.3948C50.7977 56.1636 52.5492 55.2765 52.2287 53.0243C51.6999 50.9009 49.9374 49.3501 46.9999 51.7001" stroke="url(#paint1_linear_206_9797)" stroke-width="1.5" stroke-linecap="round" stroke-linejoin="round"/>
<defs>
<linearGradient id="paint0_linear_206_9797" x1="-8.75443e-08" y1="47" x2="103.335" y2="47" gradientUnits="userSpaceOnUse">
<stop stop-color="#1E2A5D"/>
<stop offset="0.372917" stop-color="#2A3976"/>
<stop offset="0.699396" stop-color="#3C509C"/>
<stop offset="1" stop-color="#495FBA"/>
</linearGradient>
<linearGradient id="paint1_linear_206_9797" x1="30.5499" y1="46.4126" x2="65.4254" y2="46.4126" gradientUnits="userSpaceOnUse">
<stop stop-color="#1E2A5D"/>
<stop offset="0.372917" stop-color="#2A3976"/>
<stop offset="0.699396" stop-color="#3C509C"/>
<stop offset="1" stop-color="#495FBA"/>
</linearGradient>
</defs>
</svg>
