<svg xmlns="http://www.w3.org/2000/svg" width="94" height="94" fill="none"><circle cx="47" cy="47" r="46" stroke="#51AAA0" stroke-dasharray="2 2" stroke-linejoin="round" stroke-width="2"/><path stroke="#51AAA0" stroke-linecap="round" stroke-linejoin="round" stroke-width="1.5" d="M54.946 71.132h2.905m0 0h2.906v8.493H32.76v-8.493h1.32m23.77 0v-4.247m0 0H35.402m22.45 0c1.478 0 3.961-10.263 5.017-15.394V35.566c-2.535-3.398-4.93-1.416-5.81 0M35.402 66.885v4.247m0-4.247c-1.408-3.716-4.225-11.997-4.225-15.394V29.196c.88-1.947 3.275-4.672 5.81 0v13.27-21.764c1.056-1.769 3.803-4.246 6.339 0v20.172-22.826c1.232-2.3 4.33-5.52 6.866 0v2.655m-14.79 50.429h16.375-17.695m1.32 0h-1.32m16.11-33.306V20.703m0 0c1.057-1.77 3.91-4.247 6.867 0v14.863m0 9.555v-9.555M41.154 45.55c-3.17 2.123-6.007 8.374-1.526 15.275 1.526 2.35 9.44 5.52 15.318 0 1.585-1.946 3.803-7.007 0-11.678-1.232-1.062-4.754-2.548-8.98 0-1.408 1.415-3.38 4.99 0 7.962 2.29.531 7.396.531 6.867-3.185-.528-2.123-2.288-3.674-5.223-1.324"/></svg>