<svg width="18" height="12" viewBox="0 0 18 12" fill="none" xmlns="http://www.w3.org/2000/svg">
<path d="M1.31714 0C1.05821 0 0.820573 0.0777852 0.617368 0.205791L8.41002 6.79817C8.76679 7.10027 9.24758 7.10027 9.60358 6.79817L17.3825 0.205791C17.1793 0.0777852 16.9417 0 16.6827 0H1.31694H1.31714ZM0.0754883 0.884863C0.0284815 1.02037 0 1.16492 0 1.31695V10.0974C0 10.3618 0.0794669 10.6048 0.212683 10.8107L5.78984 5.7279L0.0754883 0.884863ZM17.9245 0.884863L12.2239 5.72115L17.7873 10.8111C17.9205 10.6051 18 10.3621 18 10.0977V1.31726C18 1.16521 17.9715 1.02067 17.9245 0.885177V0.884863ZM11.552 6.29698L10.1663 7.47003C9.49606 8.03856 8.51104 8.03778 7.84086 7.47003L6.46202 6.30388L0.926017 11.3526C1.04989 11.3909 1.1802 11.4143 1.31708 11.4143H16.6829C16.8196 11.4143 16.9501 11.3909 17.074 11.3526L11.5521 6.29682L11.552 6.29698Z" fill="#29B384"/>
</svg>
