<svg width="94" height="94" viewBox="0 0 94 94" fill="none" xmlns="http://www.w3.org/2000/svg">
<circle cx="47" cy="47" r="46" stroke="url(#paint0_linear_206_9811)" stroke-width="2" stroke-dasharray="2 2"/>
<path d="M37.9516 37.0058V35.3667L39.0433 30.4491H22.1215L11.75 40.2842L22.1215 50.1192H39.0433L37.9516 43.5625H43.9561M37.9516 37.0058H43.9561V43.5625M37.9516 37.0058H33.0388L30.8553 40.2842H22.1215M43.9561 43.5625L44.502 32.0883C45.4117 29.9027 48.323 29.3563 50.5065 32.0883V41.9234V29.0939C50.5065 28.5506 50.6417 28.0079 50.9782 27.5813C52.2847 25.9249 54.755 24.4235 57.0569 28.2636M43.9561 43.5625C45.5937 45.9302 49.0872 50.6656 49.9606 50.6656V55.5831M57.0569 28.2636V34.2738M57.0569 28.2636C57.9667 26.8066 60.3321 24.7668 62.5156 28.2636M62.5156 28.2636V34.2738M62.5156 28.2636C63.0614 26.6243 66.7733 25.2039 68.5201 28.2636V29.9027M68.5201 34.2738V29.9027M68.5201 29.9027C69.4865 28.6128 71.3942 26.8662 73.637 28.9084C74.2764 29.4907 74.5246 30.3701 74.5246 31.235V37.0058M74.5246 44.1089C73.9787 45.7481 72.5595 49.245 71.2494 50.1192M74.5246 44.1089L71.2494 50.1192M74.5246 44.1089H79.9833L81.075 41.9234V38.0986L79.9833 37.0058H74.5246M74.5246 44.1089V37.0058M71.2494 50.1192V55.5831M71.2494 55.5831H49.9606M71.2494 55.5831L74.5246 57.2223V61.5934L72.887 63.2326L71.2494 63.2716M49.9606 55.5831L47.2313 57.2223V61.5934L49.2783 63.2326M49.2783 63.2326V68.1501H71.2494V63.2716M49.2783 63.2326L71.2494 63.2716" stroke="url(#paint1_linear_206_9811)" stroke-width="1.5" stroke-linecap="round" stroke-linejoin="round"/>
<defs>
<linearGradient id="paint0_linear_206_9811" x1="-8.75443e-08" y1="47" x2="103.335" y2="47" gradientUnits="userSpaceOnUse">
<stop stop-color="#1E2A5D"/>
<stop offset="0.372917" stop-color="#2A3976"/>
<stop offset="0.699396" stop-color="#3C509C"/>
<stop offset="1" stop-color="#495FBA"/>
</linearGradient>
<linearGradient id="paint1_linear_206_9811" x1="11.75" y1="47.0001" x2="87.9594" y2="47.0001" gradientUnits="userSpaceOnUse">
<stop stop-color="#1E2A5D"/>
<stop offset="0.372917" stop-color="#2A3976"/>
<stop offset="0.699396" stop-color="#3C509C"/>
<stop offset="1" stop-color="#495FBA"/>
</linearGradient>
</defs>
</svg>
