<svg xmlns="http://www.w3.org/2000/svg" width="94" height="94" fill="none"><circle cx="47" cy="47" r="46" stroke="#51AAA0" stroke-dasharray="2 2" stroke-width="2"/><path stroke="#51AAA0" stroke-linecap="round" stroke-linejoin="round" stroke-width="1.5" d="M38.202 37.156v-1.64l1.091-4.917H22.372L12 40.434l10.372 9.835h16.921l-1.091-6.557h6.004m-6.004-6.556h6.004v6.556m-6.004-6.556h-4.913l-2.184 3.278h-8.733m21.834 3.278.546-11.474c.91-2.185 3.821-2.732 6.005 0v9.835-13.66c1.091-1.82 3.93-4.37 6.55 0m-13.1 15.3c1.637 2.367 5.13 7.102 6.004 7.102v4.918m7.096-27.32v6.01m0-6.01c.91-1.457 3.275-3.496 5.459 0m0 0v6.01m0-6.01c.545-1.639 4.257-3.06 6.004 0v1.64m0 4.37v-4.37m0 0c1.092-1.457 3.384-3.497 6.005 0v7.103m0 7.103c-.546 1.639-1.966 5.136-3.276 6.01m3.276-6.01-3.276 6.01m3.276-6.01h5.458l1.092-2.186v-3.825l-1.092-1.092h-5.458m0 7.103v-7.103m-3.276 13.113v5.464m0 0H50.211m21.288 0 3.276 1.64v4.37l-1.638 1.64-1.638.038m-21.288-7.688-2.73 1.64v4.37l2.047 1.64m0 0V68.3H71.5v-4.878m-21.97-.04 21.97.04"/></svg>