<svg xmlns="http://www.w3.org/2000/svg" width="94" height="94" fill="none"><circle cx="47" cy="47" r="46" stroke="#51AAA0" stroke-dasharray="2 2" stroke-width="2"/><path stroke="#51AAA0" stroke-linecap="round" stroke-linejoin="round" stroke-width="1.5" d="M51.704 74.05H38.192v-7.317l-1.368-2.613m14.88 9.93v-8.885l-4.157-8.362V37.988c.693-1.568 2.702-3.763 5.197 0m-1.04 36.062h18.19v-8.885l4.158-8.885V31.193c-2.079-2.926-4.331-1.219-5.197 0m-16.111 6.795v9.407m0-9.407V25.445c.866-1.394 3.222-3.345 5.717 0m0 0v16.201m0-16.201v-3.136c.866-1.046 3.118-2.51 5.197 0v2.09m0 17.247V24.4m0 0c.866-1.393 3.118-3.345 5.197 0v6.794m0 10.453V31.193m-2.079 39.198h-5.717M38.192 37.988c-2.079-2.927-4.331-1.22-5.197 0v1.568m5.197-1.568v8.885m0-8.885v-8.885m5.717-3.659c-2.08-3.762-4.678-1.567-5.717 0v3.66m5.717-3.66v16.202m0-16.201v-3.136c.866-1.742 3.222-4.181 5.717 0m0 0v8.884m0-8.884c1.212-1.046 3.95-2.51 5.197 0m-25.466 6.794h8.835m-12.473 0h-5.717m12.993 10.453H20.522m12.473 0v8.623m0 0v8.624l3.83 7.317m-3.83-15.94h-5.197m-2.599 0h-1.56m4.678 3.397h-7.795m3.638 8.885h-4.158m.52 3.658h16.302"/></svg>