<svg xmlns="http://www.w3.org/2000/svg" width="94" height="94" fill="none"><circle cx="47" cy="47" r="46" stroke="#51AAA0" stroke-dasharray="2 2" stroke-width="2"/><path stroke="#51AAA0" stroke-width="1.5" d="m58.69 22.322-.021-.007-.022-.006a31.406 31.406 0 0 1-10.85-5.294 2.007 2.007 0 0 0-1.27-.507h-.011a2.034 2.034 0 0 0-1.383.508 30.222 30.222 0 0 1-10.795 5.292l-.025.007-.024.008c-1.362.458-4.485 1.117-7.35 1.669-1.42.274-2.758.517-3.753.693a126.095 126.095 0 0 1-1.538.261 10.31 10.31 0 0 1-.074.011h-.017l-.058.009a1.996 1.996 0 0 0-1.185.645 1.92 1.92 0 0 0-.486 1.26v.006c0 19.28.224 28.454 6.498 37.77 2.723 4.048 7.487 7.245 11.559 9.44 3.858 2.079 7.192 3.309 7.802 3.534l.081.03.066.025.069.012c.2.036.406.04.608.012h.499l.129-.049.09-.033a63.35 63.35 0 0 0 7.84-3.53c4.096-2.195 8.887-5.392 11.61-9.44 6.274-9.317 6.498-18.491 6.498-37.771v-.006a1.92 1.92 0 0 0-.486-1.26 1.995 1.995 0 0 0-1.179-.644h-.002l-.022-.004-.084-.015a185.481 185.481 0 0 1-1.5-.263c-.988-.175-2.333-.42-3.768-.693-2.893-.553-6.072-1.212-7.446-1.67Zm-37.146 2.639.008-.001h-.008Zm14.028 1.26.023-.006.022-.007A40.8 40.8 0 0 0 46.51 20.91a41.1 41.1 0 0 0 10.963 5.11l.017.004.016.004c3.882.96 7.81 1.731 11.772 2.309-.108 19.42-.69 26.325-5.918 34.087l-.127.19v.092c-2.07 2.956-5.677 5.504-9.141 7.446a61.529 61.529 0 0 1-7.64 3.583 60.458 60.458 0 0 1-7.587-3.582c-3.512-1.982-7.174-4.596-9.222-7.633-5.226-7.762-5.81-14.666-5.846-33.992a122.705 122.705 0 0 0 11.774-2.309Z"/><path stroke="#51AAA0" stroke-width="1.5" d="M46.95 61.45c7.552 0 13.674-6.122 13.674-13.675 0-7.552-6.122-13.675-13.675-13.675-7.552 0-13.675 6.123-13.675 13.675 0 7.553 6.123 13.675 13.675 13.675Z"/><path stroke="#51AAA0" stroke-linecap="round" stroke-linejoin="round" stroke-width="1.5" d="m39.9 47.775 5.287 5.288 8.812-9.988"/></svg>