<svg>
<defs>
<symbol id="icon-Arrow-right" viewBox="0 0 144 48">
<path d="M140.124 26.124c0.544-0.543 0.881-1.294 0.881-2.124s-0.337-1.581-0.881-2.124l-19.092-19.092c-0.543-0.542-1.293-0.878-2.121-0.878-1.658 0-3.002 1.344-3.002 3.002 0 0.83 0.337 1.581 0.881 2.124l16.968 16.968-16.968 16.968c-0.544 0.543-0.881 1.294-0.881 2.124 0 1.658 1.344 3.002 3.002 3.002 0.828 0 1.578-0.335 2.121-0.878l19.092-19.092zM0 27h138v-6h-138v6z"></path>
</symbol>
<symbol id="icon-basket" viewBox="0 0 48 48">
<path d="M38.641 44.201h-29.283c-0.483 0-0.898-0.414-0.898-0.898v-28.247c0-0.483 0.414-0.898 0.898-0.898h29.283c0.483 0 0.898 0.414 0.898 0.898v28.247c0 0.484-0.414 0.898-0.898 0.898z"></path>
<path d="M15.021 14.158c0-10.36 8.978-10.36 8.978-10.36s8.978 0 8.978 10.36"></path>
</symbol>
<symbol id="icon-Burger-menu" viewBox="0 0 48 48">
<path d="M41.914 18.26h-36.88M41.914 31.554h-36.88M41.914 44.85h-36.88"></path>
</symbol>
</defs>
</svg>
