<svg><defs><symbol id="icon-Arrow-right" viewBox="0 0 144 48"><path d="M140.124 26.124c.544-.543.881-1.294.881-2.124s-.337-1.581-.881-2.124L121.032 2.784a3.002 3.002 0 1 0-4.242 4.248L133.758 24 116.79 40.968a3.002 3.002 0 1 0 4.242 4.248l19.092-19.092zM0 27h138v-6H0v6z"/></symbol><symbol id="icon-basket" viewBox="0 0 48 48"><path d="M38.641 44.201H9.358a.914.914 0 0 1-.898-.898V15.056c0-.483.414-.898.898-.898h29.283c.483 0 .898.414.898.898v28.247a.914.914 0 0 1-.898.898zM15.021 14.158c0-10.36 8.978-10.36 8.978-10.36s8.978 0 8.978 10.36"/></symbol><symbol id="icon-Burger-menu" viewBox="0 0 48 48"><path d="M41.914 18.26H5.034m36.88 13.294H5.034m36.88 13.296H5.034"/></symbol></defs></svg>