<svg xmlns="http://www.w3.org/2000/svg" width="36" height="36" fill="none"><path fill="#487ACD" d="M35.323 17.832c0 2.415-.049 4.837.014 7.251.106 4.275-2.618 7.577-6.087 9.048-1.393.59-2.857.902-4.37.902-4.736.007-9.479.07-14.215-.02-3.568-.07-6.502-1.54-8.606-4.441C.954 29.045.426 27.31.426 25.43V10.512c0-4.06 2.006-6.897 5.567-8.743C7.54.971 9.223.631 10.975.624c4.595 0 9.197-.027 13.793.014 3.567.028 6.544 1.374 8.74 4.205 1.224 1.582 1.815 3.4 1.815 5.398v7.591Zm-32.3 0v7.633c0 1.138.267 2.207.865 3.171 1.57 2.533 3.941 3.768 6.883 3.816 4.722.07 9.45.028 14.18.014a7.784 7.784 0 0 0 3.335-.728c2.857-1.346 4.455-3.49 4.44-6.71-.028-4.927-.007-9.853-.007-14.78 0-1.394-.4-2.671-1.238-3.795-1.619-2.158-3.856-3.22-6.53-3.247-4.715-.056-9.43-.021-14.145-.014-1.006 0-1.978.2-2.92.548-2.59.95-4.997 3.358-4.884 6.904.084 2.4.02 4.794.02 7.188Z"/><path fill="#487ACD" d="M17.913 25.187c-4.54 0-8.199-3.566-8.206-8.007-.007-4.372 3.68-7.952 8.191-7.952 4.525-.007 8.199 3.566 8.206 7.973 0 4.399-3.667 7.98-8.191 7.986Zm0-2.567c3.089 0 5.594-2.436 5.587-5.433-.007-2.97-2.512-5.399-5.587-5.399-3.09 0-5.61 2.422-5.61 5.413.008 2.997 2.52 5.426 5.61 5.419ZM27.82 6.8c.95 0 1.724.798 1.724 1.776-.007.979-.788 1.77-1.738 1.763-.936-.007-1.703-.798-1.703-1.756-.007-.978.767-1.783 1.717-1.783Z"/></svg>