<svg width="18" height="18" viewBox="0 0 18 18" fill="none" xmlns="http://www.w3.org/2000/svg">
<path fill-rule="evenodd" clip-rule="evenodd" d="M9.18176 17.9391C9.27194 17.8988 9.35267 17.8402 9.4185 17.7667C10.9698 16.0714 15.4248 10.8225 15.4248 7.21507C15.4808 6.31018 15.3552 5.40312 15.0556 4.54755C14.7559 3.69182 14.288 2.90468 13.6797 2.23252C13.0713 1.56036 12.3348 1.01641 11.5131 0.633152C10.6913 0.249865 9.80134 0.0346837 8.89547 0.000258747C7.96987 -0.0077935 7.0525 0.172172 6.19858 0.52931C5.34466 0.886428 4.57221 1.41302 3.92803 2.07756C3.28365 2.74209 2.78119 3.53036 2.45065 4.39501C2.1201 5.25939 1.96872 6.18222 2.00536 7.107C2.00536 10.8225 6.74894 16.0714 8.37242 17.7669C8.43845 17.8404 8.51917 17.8989 8.60916 17.9392C8.69934 17.9793 8.79697 18 8.89561 18C8.99426 18 9.09189 17.9793 9.18187 17.9392L9.18176 17.9391ZM11.7269 6.20519C11.7269 7.86877 10.3783 9.21732 8.71476 9.21732C7.05118 9.21732 5.70263 7.86877 5.70263 6.20519C5.70263 4.54161 7.05118 3.19285 8.71476 3.19285C10.3783 3.19285 11.7269 4.54161 11.7269 6.20519Z" fill="#29B384"/>
</svg>
