<svg width="94" height="94" viewBox="0 0 94 94" fill="none" xmlns="http://www.w3.org/2000/svg">
<circle cx="47" cy="47" r="46" stroke="url(#paint0_linear_206_9803)" stroke-width="2" stroke-dasharray="2 2"/>
<path d="M58.741 23.8973L58.7195 23.8902L58.6977 23.8843C54.7538 22.8286 51.0666 21.0288 47.8487 18.59C47.4985 18.2771 47.0476 18.0991 46.5788 18.0834L46.5788 18.0833L46.5664 18.0831C46.0594 18.0745 45.5644 18.2541 45.1842 18.5907C41.9992 21.0487 38.3252 22.8504 34.3886 23.8834L34.3641 23.8898L34.34 23.8979C32.9781 24.3558 29.8545 25.0149 26.9899 25.5669C25.5699 25.8406 24.232 26.0845 23.2374 26.2599C22.74 26.3476 22.3296 26.418 22.0384 26.4663C21.8924 26.4906 21.7784 26.5089 21.6991 26.521C21.6671 26.5259 21.6427 26.5295 21.6251 26.5319H21.6076L21.5499 26.541C21.0934 26.6125 20.6728 26.8387 20.365 27.1857C20.0568 27.5334 19.8825 27.9796 19.879 28.4459L19.879 28.4459V28.4514C19.879 47.7317 20.1034 56.9057 26.377 66.2225C29.0997 70.2696 33.8644 73.467 37.9359 75.6616C41.7934 77.7408 45.1277 78.971 45.738 79.1962C45.7756 79.21 45.8029 79.2201 45.8193 79.2263L45.8846 79.251L45.9534 79.2632C46.1546 79.299 46.3602 79.3028 46.5624 79.2748H46.9241H47.0612L47.1894 79.2263C47.207 79.2196 47.2372 79.2085 47.2795 79.193C47.9139 78.96 51.2584 77.7315 55.1205 75.6625C59.2163 73.4682 64.0072 70.2706 66.7307 66.2222C73.004 56.9056 73.2284 47.7315 73.2285 28.4514L73.2284 28.4459C73.225 27.9796 73.0507 27.5334 72.7424 27.1857C72.436 26.8401 72.0176 26.6144 71.5633 26.5419L71.5605 26.5414L71.5391 26.5377L71.4548 26.5233C71.3807 26.5105 71.2715 26.4917 71.1315 26.4673C70.8513 26.4186 70.4476 26.3479 69.9541 26.2601C68.967 26.0845 67.6215 25.8404 66.1872 25.5667C63.2934 25.0144 60.115 24.3553 58.741 23.8973ZM21.5948 26.5358C21.595 26.5357 21.5978 26.5354 21.6026 26.5349C21.597 26.5356 21.5946 26.5359 21.5948 26.5358ZM35.6233 27.7952L35.6457 27.7896L35.6677 27.7827C39.5564 26.5624 43.2299 24.7763 46.5618 22.4861C49.9289 24.7132 53.6249 26.4358 57.5247 27.5951L57.5414 27.6001L57.5583 27.6042C61.4398 28.5645 65.3687 29.3349 69.3301 29.9127C69.2221 49.3334 68.6392 56.2376 63.4123 64.0004L63.2844 64.1903V64.282C61.2149 67.2379 57.6078 69.7863 54.1435 71.7277C50.8736 73.5602 47.8162 74.8056 46.5045 75.3113C45.1972 74.8061 42.1632 73.5609 38.9165 71.7288C35.4051 69.7472 31.7425 67.1324 29.6952 64.0959C24.4689 56.334 23.8852 49.43 23.8491 30.104C27.8113 29.5264 31.7411 28.7558 35.6233 27.7952Z" stroke="url(#paint1_linear_206_9803)" stroke-width="1.5"/>
<path d="M47.0003 63.0251C54.5528 63.0251 60.6753 56.9025 60.6753 49.35C60.6753 41.7976 54.5528 35.675 47.0003 35.675C39.4478 35.675 33.3253 41.7976 33.3253 49.35C33.3253 56.9025 39.4478 63.0251 47.0003 63.0251Z" stroke="url(#paint2_linear_206_9803)" stroke-width="1.5"/>
<path d="M39.9498 45.3499L45.2373 50.6374L54.0498 40.6499" stroke="url(#paint3_linear_206_9803)" stroke-width="1.5" stroke-linecap="round" stroke-linejoin="round"/>
<defs>
<linearGradient id="paint0_linear_206_9803" x1="-8.75443e-08" y1="47" x2="103.335" y2="47" gradientUnits="userSpaceOnUse">
<stop stop-color="#1E2A5D"/>
<stop offset="0.372917" stop-color="#2A3976"/>
<stop offset="0.699396" stop-color="#3C509C"/>
<stop offset="1" stop-color="#495FBA"/>
</linearGradient>
<linearGradient id="paint1_linear_206_9803" x1="20.629" y1="48.688" x2="77.6274" y2="48.688" gradientUnits="userSpaceOnUse">
<stop stop-color="#1E2A5D"/>
<stop offset="0.372917" stop-color="#2A3976"/>
<stop offset="0.699396" stop-color="#3C509C"/>
<stop offset="1" stop-color="#495FBA"/>
</linearGradient>
<linearGradient id="paint2_linear_206_9803" x1="34.0753" y1="49.3501" x2="62.4924" y2="49.3501" gradientUnits="userSpaceOnUse">
<stop stop-color="#1E2A5D"/>
<stop offset="0.372917" stop-color="#2A3976"/>
<stop offset="0.699396" stop-color="#3C509C"/>
<stop offset="1" stop-color="#495FBA"/>
</linearGradient>
<linearGradient id="paint3_linear_206_9803" x1="39.9498" y1="45.6437" x2="55.45" y2="45.6437" gradientUnits="userSpaceOnUse">
<stop stop-color="#1E2A5D"/>
<stop offset="0.372917" stop-color="#2A3976"/>
<stop offset="0.699396" stop-color="#3C509C"/>
<stop offset="1" stop-color="#495FBA"/>
</linearGradient>
</defs>
</svg>
