<svg xmlns="http://www.w3.org/2000/svg" width="94" height="94" fill="none"><path stroke="#51AAA0" stroke-linecap="round" stroke-linejoin="round" stroke-width="1.5" d="M41.616 53.384 27.941 33.248c-.526-5.3 4.383-4.946 6.312-3.71L44.77 43.316c-.42-6.36 4.383-4.416 6.838-2.65.42-5.087 4.032-4.239 5.785-3.18l2.63 3.18c-.841-2.967 1.753-3.356 3.156-3.18 5.47 2.12 9.642 18.194 11.045 25.966L56.342 74.05 37.935 60.803c-3.787-3.392-1.578-6.36 0-7.42M26.363 35.368l-4.207 3.18m2.63-9.009H19m7.363-3.18-2.63-3.179m7.364 1.06V20m4.734 6.359 2.104-3.18"/><circle cx="47" cy="47" r="46" stroke="#51AAA0" stroke-dasharray="2 2" stroke-width="2"/></svg>