<svg xmlns="http://www.w3.org/2000/svg" aria-hidden="true" style="position:absolute;width:0;height:0;overflow:hidden"><defs><symbol id="icon-instagram" viewBox="0 0 32 32"><path fill="#487acd" d="M31.398 15.851c0 2.147-.044 4.3.012 6.445.094 3.8-2.327 6.735-5.411 8.043a9.907 9.907 0 0 1-3.884.802c-4.21.006-8.426.062-12.636-.018-3.172-.062-5.78-1.369-7.65-3.948-.982-1.357-1.452-2.9-1.452-4.571V9.344c0-3.609 1.783-6.131 4.948-7.772C6.7.863 8.196.56 9.753.554c4.084 0 8.175-.024 12.26.012 3.171.025 5.817 1.221 7.769 3.738 1.088 1.406 1.613 3.022 1.613 4.798v6.748zm-28.711 0v6.785c0 1.012.237 1.962.769 2.819 1.396 2.252 3.503 3.349 6.118 3.392 4.197.062 8.4.025 12.604.012h.043a6.898 6.898 0 0 0 2.964-.665l-.042.018c2.54-1.196 3.96-3.102 3.947-5.964-.025-4.38-.006-8.758-.006-13.138 0-1.239-.356-2.374-1.1-3.373-1.439-1.918-3.428-2.862-5.804-2.886-4.191-.05-8.382-.019-12.573-.012-.894 0-1.758.178-2.596.487-2.302.844-4.442 2.985-4.341 6.137.075 2.133.018 4.261.018 6.389z" style="fill:var(--color1, #487acd)"/><path fill="#487acd" d="M15.923 22.388c-4.036 0-7.288-3.17-7.294-7.117-.006-3.886 3.271-7.068 7.281-7.068 4.022-.006 7.288 3.17 7.294 7.087 0 3.91-3.26 7.093-7.281 7.099zm0-2.281c2.746 0 4.972-2.165 4.966-4.829-.006-2.64-2.233-4.799-4.966-4.799-2.747 0-4.987 2.153-4.987 4.812.007 2.664 2.24 4.823 4.987 4.817zm8.806-14.063c.844 0 1.532.709 1.532 1.579-.006.87-.7 1.573-1.545 1.567-.832-.006-1.514-.709-1.514-1.561-.006-.869.682-1.585 1.526-1.585z" style="fill:var(--color1, #487acd)"/></symbol></defs></svg>