<svg xmlns="http://www.w3.org/2000/svg" aria-hidden="true" style="position:absolute;width:0;height:0;overflow:hidden"><defs><symbol id="icon-email" viewBox="0 0 48 32"><path d="M3.512 0c-.69 0-1.324.207-1.866.549l20.78 17.58c.951.806 2.233.806 3.183 0L46.353.549A3.484 3.484 0 0 0 44.487 0H3.512zM.201 2.36A3.511 3.511 0 0 0 0 3.512v23.415c0 .705.212 1.353.567 1.902l14.872-13.554L.201 2.36zm47.598 0L32.597 15.257 47.433 28.83A3.484 3.484 0 0 0 48 26.928V3.513c0-.405-.076-.791-.201-1.152V2.36zM30.805 16.792 27.11 19.92a4.798 4.798 0 0 1-6.201 0l-3.677-3.11L2.469 30.273c.33.102.678.165 1.043.165h40.976c.365 0 .713-.062 1.043-.165L30.806 16.791z"/></symbol><symbol id="icon-noun-location" viewBox="0 0 32 32"><path d="M16.323 31.892c.16-.072.304-.176.421-.306 2.758-3.014 10.678-12.345 10.678-18.758a12.091 12.091 0 0 0-6.954-11.701A12.1 12.1 0 0 0 15.814.002 12.151 12.151 0 0 0 4.357 7.815a12.166 12.166 0 0 0-.792 4.821c0 6.605 8.433 15.937 11.319 18.951a1.237 1.237 0 0 0 .93.414c.175 0 .349-.037.509-.108zm4.525-20.861a5.356 5.356 0 1 1-10.711-.001 5.356 5.356 0 0 1 10.711.001z" style="fill:var(--color1, #29b384)"/></symbol></defs></svg>