<svg xmlns="http://www.w3.org/2000/svg" aria-hidden="true" style="position:absolute;width:0;height:0;overflow:hidden"><defs><symbol id="icon-safety" viewBox="0 0 32 32"><path fill="none" stroke="#51aaa0" stroke-width=".681" d="M31.66 16c0 8.649-7.011 15.66-15.66 15.66S.34 24.649.34 16C.34 7.351 7.351.34 16 .34S31.66 7.351 31.66 16z" style="stroke:var(--color1, #51aaa0)"/><path fill="none" stroke="#51aaa0" stroke-width=".511" d="m19.98 7.599-.007-.002-.008-.002a10.708 10.708 0 0 1-3.72-1.821l.026.019a.682.682 0 0 0-.431-.173h-.018a.69.69 0 0 0-.459.174l.001-.001a10.204 10.204 0 0 1-3.603 1.785l-.072.016-.008.002-.008.003c-.464.156-1.527.38-2.502.568a88.69 88.69 0 0 1-1.278.236c.084-.007-.093.024-.272.054l-.252.035-.006.001-.019.002h-.006l-.02.003a.681.681 0 0 0-.403.219l-.001.001a.651.651 0 0 0-.165.429v.002c0 6.563.076 9.686 2.212 12.858.927 1.378 2.549 2.466 3.935 3.214 1.313.708 2.448 1.126 2.656 1.203l.028.01.022.009.024.004a.653.653 0 0 0 .207.004h.17l.044-.017.031-.011a21.192 21.192 0 0 0 2.782-1.258l-.113.056c1.394-.747 3.025-1.836 3.952-3.214 2.136-3.172 2.212-6.295 2.212-12.858v-.002a.657.657 0 0 0-.166-.43l.001.001a.684.684 0 0 0-.397-.219l-.004-.001h-.001l-.008-.001-.029-.005a28.127 28.127 0 0 1-.899-.149l.389.06c-.336-.06-.794-.143-1.283-.236-.985-.188-2.067-.413-2.535-.569zm-12.646.898h.003-.003zm4.776.429.008-.002.008-.002a13.893 13.893 0 0 0 3.754-1.834l-.046.03a13.805 13.805 0 0 0 3.633 1.714l.099.026.006.001.005.001c1.322.327 2.659.589 4.008.786-.037 6.611-.235 8.962-2.015 11.604l-.043.065v.031c-.705 1.006-1.933 1.874-3.112 2.535-.717.409-1.573.819-2.459 1.17l-.142.05a20.122 20.122 0 0 1-2.684-1.273l.102.053c-1.196-.675-2.442-1.565-3.139-2.598-1.779-2.642-1.978-4.993-1.99-11.572a41.24 41.24 0 0 0 4.297-.848l-.289.062z" style="stroke:var(--color1, #51aaa0)"/><path fill="none" stroke="#51aaa0" stroke-width=".511" d="M15.983 20.919a4.655 4.655 0 1 0 0-9.31 4.655 4.655 0 0 0 0 9.31z" style="stroke:var(--color1, #51aaa0)"/><path fill="none" stroke="#51aaa0" stroke-linecap="round" stroke-linejoin="round" stroke-width=".511" d="m13.583 16.264 1.8 1.8 3-3.4" style="stroke:var(--color1, #51aaa0)"/></symbol><symbol id="icon-elastic" viewBox="0 0 32 32"><path fill="none" stroke="#51aaa0" stroke-linejoin="round" stroke-width=".681" d="M31.66 16c0 8.649-7.011 15.66-15.66 15.66S.34 24.649.34 16C.34 7.351 7.351.34 16 .34S31.66 7.351 31.66 16z" style="stroke:var(--color1, #51aaa0)"/><path fill="none" stroke="#51aaa0" stroke-linecap="round" stroke-linejoin="round" stroke-width=".511" d="M18.705 24.215h.989m0 0h.989v2.891h-9.531v-2.891h.449m8.093 0v-1.446m0 0h-7.642m7.642 0c.503 0 1.348-3.494 1.708-5.241v-5.421c-.863-1.157-1.678-.482-1.978 0m-7.372 10.662v1.446m0-1.446c-.479-1.265-1.438-4.084-1.438-5.241v-7.59c.3-.663 1.115-1.59 1.978 0v4.517-7.409c.36-.602 1.295-1.445 2.158 0v6.867-7.771c.419-.783 1.474-1.879 2.337 0v.904m-5.035 17.169h-.449m.449 0h-.449m5.484-11.338V7.048m0 0c.36-.603 1.331-1.446 2.338 0v5.06m-.001 3.252v-3.253m-5.414 3.399c-1.079.723-2.045 2.851-.52 5.2.52.8 3.214 1.879 5.215 0 .54-.662 1.295-2.385 0-3.976-.419-.362-1.618-.867-3.057 0-.479.482-1.151 1.699 0 2.71.78.181 2.518.181 2.338-1.084-.18-.723-.779-1.251-1.778-.451" style="stroke:var(--color1, #51aaa0)"/></symbol><symbol id="icon-sensative" viewBox="0 0 32 32"><path fill="none" stroke="#51aaa0" stroke-linecap="round" stroke-linejoin="round" stroke-width=".511" d="m14.167 18.173-4.655-6.855c-.179-1.804 1.492-1.684 2.149-1.263l3.58 4.69c-.143-2.165 1.492-1.503 2.328-.902.143-1.732 1.373-1.443 1.969-1.083l.895 1.083c-.286-1.01.597-1.142 1.074-1.083 1.862.722 3.282 6.194 3.76 8.84l-6.087 3.608-6.266-4.51c-1.289-1.155-.537-2.165 0-2.526M8.975 12.04l-1.432 1.083m.895-3.067h-1.97m2.507-1.083L8.08 7.891m2.506.361V6.809m1.612 2.164.716-1.083" style="stroke:var(--color1, #51aaa0)"/><path fill="none" stroke="#51aaa0" stroke-width=".681" d="M31.66 16c0 8.649-7.011 15.66-15.66 15.66S.34 24.649.34 16C.34 7.351 7.351.34 16 .34S31.66 7.351 31.66 16z" style="stroke:var(--color1, #51aaa0)"/></symbol><symbol id="icon-high-fast" viewBox="0 0 32 32"><path fill="none" stroke="#51aaa0" stroke-width=".681" d="M31.66 16c0 8.649-7.011 15.66-15.66 15.66S.34 24.649.34 16C.34 7.351 7.351.34 16 .34S31.66 7.351 31.66 16z" style="stroke:var(--color1, #51aaa0)"/><path fill="none" stroke="#51aaa0" stroke-linecap="round" stroke-linejoin="round" stroke-width=".511" d="M17.601 25.209h-4.6v-2.491l-.466-.89m5.066 3.381v-3.025l-1.415-2.847v-6.405c.236-.534.92-1.281 1.769 0m-.354 12.277h6.192v-3.025l1.416-3.025v-8.54c-.708-.996-1.474-.415-1.769 0m-5.485 2.313v3.202m0-3.202v-4.27c.295-.475 1.097-1.139 1.946 0m.001 0v5.515m0-5.515V7.594c.295-.356 1.061-.854 1.769 0v.712m0 5.871V8.306m0 0c.295-.474 1.061-1.139 1.769 0v2.313m0 3.559v-3.559m-.708 13.344h-1.946m-7.784-11.031c-.708-.996-1.474-.415-1.769 0v.534m1.769-.534v3.025m0-3.025V9.907m1.946-1.245c-.708-1.281-1.592-.533-1.946 0v1.246m1.946-1.246v5.516m0-5.516V7.594c.295-.593 1.097-1.423 1.946 0m0 .001v3.024m0-3.024c.413-.356 1.345-.854 1.769 0M9.994 9.907h3.008m-4.247 0H6.809m4.423 3.559H6.986m4.246 0v2.936m0-.001v2.936l1.304 2.491m-1.304-5.426H9.463m-.885 0h-.531m1.593 1.156H6.986m1.239 3.025H6.81m.176 1.245h5.55" style="stroke:var(--color1, #51aaa0)"/></symbol><symbol id="icon-fixed-position" viewBox="0 0 32 32"><path fill="none" stroke="#51aaa0" stroke-width=".681" d="M31.66 16c0 8.649-7.011 15.66-15.66 15.66S.34 24.649.34 16C.34 7.351 7.351.34 16 .34S31.66 7.351 31.66 16z" style="stroke:var(--color1, #51aaa0)"/><path fill="none" stroke="#51aaa0" stroke-linecap="round" stroke-linejoin="round" stroke-width=".511" d="M13.005 12.649v-.558l.371-1.674h-5.76l-3.531 3.348 3.531 3.348h5.76l-.371-2.232h2.044m-2.044-2.232h2.044v2.232m-2.044-2.232h-1.672l-.744 1.116H7.616m7.433 1.116.186-3.906c.31-.744 1.301-.93 2.044 0v3.348-4.65c.371-.62 1.338-1.488 2.23 0m-4.46 5.208c.557.806 1.746 2.418 2.044 2.418v1.674m2.416-9.301v2.046m0-2.046c.31-.496 1.115-1.19 1.858 0m0 0v2.046m0-2.046c.186-.558 1.449-1.042 2.044 0v.558m0 1.488V10.23m0 .001c.372-.496 1.152-1.19 2.044 0v2.418m0 2.418c-.186.558-.669 1.748-1.115 2.046m1.115-2.046-1.115 2.046m1.115-2.046h1.858l.372-.744v-1.302l-.372-.372h-1.858m0 2.418v-2.418m-1.115 4.464v1.86m0 0h-7.247m7.247 0 1.115.558v1.488l-.558.558-.558.013m-7.246-2.617-.929.558v1.488l.697.558m0 0v1.674h7.48V21.59m-7.48-.013 7.479.014" style="stroke:var(--color1, #51aaa0)"/></symbol><symbol id="icon-alergic" viewBox="0 0 32 32"><path fill="none" stroke="#51aaa0" stroke-width=".681" d="M31.66 16c0 8.649-7.011 15.66-15.66 15.66S.34 24.649.34 16C.34 7.351 7.351.34 16 .34S31.66 7.351 31.66 16z" style="stroke:var(--color1, #51aaa0)"/><path fill="none" stroke="#51aaa0" stroke-linecap="round" stroke-linejoin="round" stroke-width=".511" d="m10.736 15.976-2.8 2.75c-.8 4.64 2.867 5.667 4.8 5.6l2.4-2.4m-4.4-5.95-3.2-3.05c-.267-2.267.48-6.48 5.6-5.2l3.2 2.75m-5.6 5.5 5.6-5.5m.001 0 .6-.589m4.4 5.839 2.8-2.8c.8-5.12-3-5.6-5-5.2l-2.2 2.16m4.4 5.84 2.8 3c1.2 2.2 0 6.4-5 5l-3.4-2.4m5.6-5.6-5.6 5.6m0 0-.6.6m1.8-12.039 3 3.04m.8.599.6.6m-10.4 3.4.6.6m.6.6 3 3.2m-2.001-5.4 3.2-3.6c1.2-.333 3.48-.28 3 2.6l-3.6 3.8c-1.133.133-3.24-.24-2.6-2.8z" style="stroke:var(--color1, #51aaa0)"/><path fill="none" stroke="#51aaa0" stroke-linecap="round" stroke-linejoin="round" stroke-width=".511" d="M14.8 17.4c.16-.16 1.667-1.8 2.4-2.6" style="stroke:var(--color1, #51aaa0)"/></symbol></defs></svg>