<svg><defs><symbol id="icon-alergic" viewBox="0 0 32 32"><path fill="none" stroke="#29b384" stroke-linecap="round" stroke-linejoin="round" stroke-width=".923" d="M6.465 15.907 1.42 20.862c-1.441 8.36 5.165 10.21 8.649 10.09l4.324-4.324M6.465 15.907.699 10.412c-.48-4.084.865-11.676 10.09-9.369l5.766 4.955m-10.09 9.909 10.09-9.91m.001 0 1.081-1.062m7.928 10.522 5.045-5.045c1.441-9.225-5.405-10.09-9.009-9.369l-3.964 3.893m7.928 10.521 5.045 5.406c2.163 3.964 0 11.532-9.009 9.009l-6.126-4.325m10.09-10.09-10.09 10.09m0 0-1.081 1.081m3.243-21.693 5.405 5.477m1.442 1.081 1.081 1.081M6.826 18.7l1.081 1.081m1.081 1.081 5.405 5.766m-3.603-9.73 5.766-6.486c2.162-.601 6.27-.505 5.405 4.685l-6.486 6.847c-2.042.24-5.838-.432-4.685-5.045z" style="stroke:var(--color1, #29b384)"/><path fill="none" stroke="#29b384" stroke-linecap="round" stroke-linejoin="round" stroke-width=".923" d="M13.787 18.473c.288-.288 3.003-3.243 4.324-4.685" style="stroke:var(--color1, #29b384)"/></symbol><symbol id="icon-elastic" viewBox="0 0 17 32"><path fill="none" stroke="#29b384" stroke-linecap="round" stroke-linejoin="round" stroke-width=".923" d="M12.041 27.341h1.383m0 0h1.383v4.044H1.478v-4.044h.629m11.317 0v-2.022m0 0H2.736m10.688 0c.704 0 1.886-4.886 2.389-7.329v-7.582c-1.207-1.618-2.347-.674-2.766 0M2.736 25.319v2.022m0-2.022C2.065 23.55.724 19.607.724 17.99V7.375c.419-.927 1.559-2.224 2.766 0v6.319V3.332c.503-.842 1.811-2.022 3.018 0v9.604V2.068c.587-1.095 2.062-2.628 3.269 0v1.264M2.736 27.341h-.629m.629 0h-.629m7.67-15.858V3.33m0 0c.503-.842 1.861-2.022 3.269 0v7.077m.001 4.549v-4.549m-7.573 4.754c-1.509 1.011-2.86 3.987-.727 7.273.727 1.119 4.494 2.628 7.293 0 .754-.927 1.811-3.336 0-5.56-.587-.505-2.263-1.213-4.275 0-.671.674-1.61 2.376 0 3.791 1.09.253 3.521.253 3.269-1.516-.252-1.011-1.09-1.749-2.487-.63" style="stroke:var(--color1, #29b384)"/></symbol><symbol id="icon-fixed-position" viewBox="0 0 50 32"><path fill="none" stroke="#29b384" stroke-linecap="round" stroke-linejoin="round" stroke-width="1.454" d="M19.295 8.772V7.626l.764-3.439H8.224L.97 11.065l7.254 6.878h11.835l-.764-4.586h4.199m-4.199-4.585h4.199v4.586m-4.199-4.586h-3.436l-1.527 2.293H8.224m15.27 2.293.382-8.025c.636-1.529 2.672-1.911 4.2 0v6.879-9.553c.764-1.274 2.749-3.057 4.581 0m-9.163 10.699c1.145 1.656 3.589 4.968 4.2 4.968v3.439m4.963-19.107v4.203m0-4.203c.636-1.019 2.291-2.446 3.818 0m-.001 0v4.203m0-4.203c.382-1.147 2.978-2.14 4.199 0v1.146m.001 3.057V3.804m0 0c.764-1.019 2.367-2.446 4.199 0v4.968m0 4.968c-.382 1.146-1.374 3.592-2.291 4.204m2.291-4.204-2.291 4.204m2.291-4.204h3.818l.764-1.528V9.537l-.764-.764h-3.818m0 4.967V8.772m-2.29 9.171v3.821m0 .001H27.694m14.889 0 2.291 1.146v3.057l-1.145 1.146-1.145.027m-14.89-5.376-1.909 1.146v3.057l1.432 1.146m-.001 0v3.439h15.366v-3.412m-15.366-.027 15.366.027" style="stroke:var(--color1, #29b384)"/></symbol><symbol id="icon-high-fast" viewBox="0 0 32 32"><path fill="none" stroke="#29b384" stroke-linecap="round" stroke-linejoin="round" stroke-width=".923" d="M18.663 31.385h-7.692V27.22l-.779-1.488m8.471 5.653v-5.058l-2.367-4.76V10.856c.394-.893 1.538-2.142 2.959 0m-.592 20.529h10.355v-5.058l2.367-5.058V6.988c-1.183-1.666-2.465-.694-2.959 0m-9.172 3.867v5.355m0-5.355V3.714c.493-.793 1.834-1.904 3.254 0m.001.001v9.223m0-9.223V1.93c.493-.595 1.775-1.428 2.959 0v1.19m-.001 9.818V3.12m0 0c.493-.793 1.775-1.904 2.959 0v3.868m0 5.95v-5.95m-1.183 22.314h-3.254M10.97 10.855c-1.183-1.666-2.465-.694-2.959 0v.893m2.959-.893v5.058m0-5.058V5.797m3.255-2.082c-1.183-2.142-2.663-.893-3.254 0v2.083m3.254-2.083v9.223m0-9.223V1.93c.493-.992 1.834-2.38 3.254 0m0 0v5.058m0-5.058c.69-.595 2.249-1.428 2.959 0M5.941 5.798h5.03m-7.101 0H.616m7.396 5.95H.911m7.101 0v4.909m0 0v4.909l2.18 4.165m-2.18-9.074H5.053m-1.479 0h-.888m2.663 1.934H.911m2.071 5.058H.615m.296 2.083h9.281" style="stroke:var(--color1, #29b384)"/></symbol><symbol id="icon-safety" viewBox="0 0 28 32"><path fill="none" stroke="#29b384" stroke-width=".889" d="m20.12 3.63-.013-.004-.013-.003a15.52 15.52 0 0 1-5.356-2.613 1.074 1.074 0 0 0-.674-.268h-.007a1.078 1.078 0 0 0-.733.268 14.925 14.925 0 0 1-5.329 2.612l-.015.004-.014.005c-.67.225-2.215.551-3.638.826a120.553 120.553 0 0 1-2.455.446l-.167.027-.031.005h-.009l-.034.005c-.243.038-.467.158-.631.343s-.258.424-.259.673v.003c0 9.562.109 14.138 3.237 18.783 1.361 2.023 3.739 3.617 5.762 4.707 1.919 1.034 3.577 1.646 3.88 1.758l.04.015.039.015.041.007c.106.019.214.021.32.007h.256l.076-.029.045-.016c.315-.116 1.979-.727 3.899-1.756 2.035-1.09 4.425-2.684 5.787-4.708 3.128-4.645 3.237-9.221 3.237-18.783v-.003a1.03 1.03 0 0 0-.259-.673 1.065 1.065 0 0 0-.627-.343h-.001l-.213-.037a146.118 146.118 0 0 1-2.452-.447c-1.438-.274-3.009-.601-3.686-.826zM1.655 4.936l.005-.001-.005.001zm6.988.767.013-.003.013-.004a20.337 20.337 0 0 0 5.385-2.61 20.446 20.446 0 0 0 5.419 2.517l.01.003.01.002c1.908.472 3.839.852 5.786 1.138-.055 9.592-.35 12.989-2.924 16.812l-.076.113v.045c-1.019 1.445-2.789 2.697-4.499 3.655a30.556 30.556 0 0 1-3.755 1.764 29.939 29.939 0 0 1-3.73-1.763c-1.74-.982-3.545-2.273-4.551-3.765-2.574-3.822-2.869-7.219-2.889-16.765a61.072 61.072 0 0 0 5.788-1.138z" style="stroke:var(--color1, #29b384)"/><path fill="none" stroke="#29b384" stroke-width=".889" d="M14.271 23.186c3.788 0 6.858-3.07 6.858-6.858s-3.07-6.858-6.858-6.858-6.858 3.07-6.858 6.858 3.07 6.858 6.858 6.858z" style="stroke:var(--color1, #29b384)"/><path fill="none" stroke="#29b384" stroke-linecap="round" stroke-linejoin="round" stroke-width=".889" d="m10.773 16.328 2.624 2.624 4.373-4.956" style="stroke:var(--color1, #29b384)"/></symbol><symbol id="icon-sensative" viewBox="0 0 33 32"><path fill="none" stroke="#29b384" stroke-linecap="round" stroke-linejoin="round" stroke-width=".923" d="M13.49 19.62 5.705 8.157C5.406 5.14 8.2 5.341 9.298 6.045l5.988 7.843c-.239-3.62 2.495-2.514 3.892-1.508.24-2.896 2.296-2.413 3.294-1.81l1.497 1.81c-.479-1.689.998-1.91 1.796-1.81 3.114 1.207 5.489 10.357 6.288 14.781l-10.18 6.033-10.479-7.541c-2.156-1.931-.898-3.62 0-4.223M4.807 9.364l-2.395 1.81m1.497-5.129H.615m4.192-1.81L3.31 2.425m4.192.604V.616m2.695 3.619 1.198-1.81" style="stroke:var(--color1, #29b384)"/></symbol></defs></svg>